<mxfile host="app.diagrams.net" agent="Mozilla/5.0 (Macintosh; Intel Mac OS X 10_15_7) AppleWebKit/537.36 (KHTML, like Gecko) Chrome/131.0.0.0 Safari/537.36" version="26.0.8">
  <diagram name="第 1 页" id="obtjYollxw9p6rtrIIlw">
    <mxGraphModel dx="1614" dy="443" grid="1" gridSize="10" guides="1" tooltips="1" connect="1" arrows="1" fold="1" page="1" pageScale="1" pageWidth="827" pageHeight="1169" math="0" shadow="0">
      <root>
        <mxCell id="0" />
        <mxCell id="1" parent="0" />
        <mxCell id="D8F1xkbiYgFCIlf3R8KJ-9" style="edgeStyle=orthogonalEdgeStyle;rounded=0;orthogonalLoop=1;jettySize=auto;html=1;entryX=1;entryY=0.5;entryDx=0;entryDy=0;" edge="1" parent="1" source="D8F1xkbiYgFCIlf3R8KJ-1" target="D8F1xkbiYgFCIlf3R8KJ-4">
          <mxGeometry relative="1" as="geometry" />
        </mxCell>
        <mxCell id="D8F1xkbiYgFCIlf3R8KJ-10" style="edgeStyle=orthogonalEdgeStyle;rounded=0;orthogonalLoop=1;jettySize=auto;html=1;entryX=1;entryY=0.5;entryDx=0;entryDy=0;" edge="1" parent="1" source="D8F1xkbiYgFCIlf3R8KJ-1" target="D8F1xkbiYgFCIlf3R8KJ-8">
          <mxGeometry relative="1" as="geometry" />
        </mxCell>
        <mxCell id="D8F1xkbiYgFCIlf3R8KJ-1" value="Qb下载器&lt;div&gt;（抢种，下种）&lt;/div&gt;" style="rounded=0;whiteSpace=wrap;html=1;" vertex="1" parent="1">
          <mxGeometry x="384" y="170" width="180" height="100" as="geometry" />
        </mxCell>
        <mxCell id="D8F1xkbiYgFCIlf3R8KJ-11" style="edgeStyle=orthogonalEdgeStyle;rounded=0;orthogonalLoop=1;jettySize=auto;html=1;entryX=1;entryY=0.75;entryDx=0;entryDy=0;" edge="1" parent="1" source="D8F1xkbiYgFCIlf3R8KJ-2" target="D8F1xkbiYgFCIlf3R8KJ-8">
          <mxGeometry relative="1" as="geometry" />
        </mxCell>
        <mxCell id="D8F1xkbiYgFCIlf3R8KJ-12" style="edgeStyle=orthogonalEdgeStyle;rounded=0;orthogonalLoop=1;jettySize=auto;html=1;entryX=1;entryY=0.5;entryDx=0;entryDy=0;" edge="1" parent="1" source="D8F1xkbiYgFCIlf3R8KJ-2" target="D8F1xkbiYgFCIlf3R8KJ-6">
          <mxGeometry relative="1" as="geometry" />
        </mxCell>
        <mxCell id="D8F1xkbiYgFCIlf3R8KJ-13" style="edgeStyle=orthogonalEdgeStyle;rounded=0;orthogonalLoop=1;jettySize=auto;html=1;entryX=1;entryY=0.5;entryDx=0;entryDy=0;" edge="1" parent="1" source="D8F1xkbiYgFCIlf3R8KJ-2" target="D8F1xkbiYgFCIlf3R8KJ-5">
          <mxGeometry relative="1" as="geometry" />
        </mxCell>
        <mxCell id="D8F1xkbiYgFCIlf3R8KJ-2" value="Tr下载器&lt;div&gt;（辅种）&lt;/div&gt;" style="rounded=0;whiteSpace=wrap;html=1;" vertex="1" parent="1">
          <mxGeometry x="384" y="290" width="180" height="140" as="geometry" />
        </mxCell>
        <mxCell id="D8F1xkbiYgFCIlf3R8KJ-18" style="edgeStyle=orthogonalEdgeStyle;rounded=0;orthogonalLoop=1;jettySize=auto;html=1;entryX=1;entryY=0.5;entryDx=0;entryDy=0;exitX=0.017;exitY=0.167;exitDx=0;exitDy=0;exitPerimeter=0;" edge="1" parent="1">
          <mxGeometry relative="1" as="geometry">
            <mxPoint x="662.04" y="205.08000000000004" as="sourcePoint" />
            <mxPoint x="564" y="205" as="targetPoint" />
          </mxGeometry>
        </mxCell>
        <mxCell id="D8F1xkbiYgFCIlf3R8KJ-31" value="下载数据" style="edgeLabel;html=1;align=center;verticalAlign=middle;resizable=0;points=[];" vertex="1" connectable="0" parent="D8F1xkbiYgFCIlf3R8KJ-18">
          <mxGeometry x="0.0238" y="-2" relative="1" as="geometry">
            <mxPoint as="offset" />
          </mxGeometry>
        </mxCell>
        <mxCell id="D8F1xkbiYgFCIlf3R8KJ-37" style="edgeStyle=orthogonalEdgeStyle;rounded=0;orthogonalLoop=1;jettySize=auto;html=1;entryX=0.5;entryY=1;entryDx=0;entryDy=0;exitX=0.5;exitY=1;exitDx=0;exitDy=0;" edge="1" parent="1" source="D8F1xkbiYgFCIlf3R8KJ-3" target="D8F1xkbiYgFCIlf3R8KJ-33">
          <mxGeometry relative="1" as="geometry">
            <Array as="points">
              <mxPoint x="720" y="490" />
              <mxPoint x="40" y="490" />
            </Array>
          </mxGeometry>
        </mxCell>
        <mxCell id="D8F1xkbiYgFCIlf3R8KJ-41" value="2. 下载种子" style="edgeLabel;html=1;align=center;verticalAlign=middle;resizable=0;points=[];" vertex="1" connectable="0" parent="D8F1xkbiYgFCIlf3R8KJ-37">
          <mxGeometry x="0.09" y="3" relative="1" as="geometry">
            <mxPoint as="offset" />
          </mxGeometry>
        </mxCell>
        <mxCell id="D8F1xkbiYgFCIlf3R8KJ-3" value="PT站" style="rounded=0;whiteSpace=wrap;html=1;" vertex="1" parent="1">
          <mxGeometry x="660" y="180" width="120" height="240" as="geometry" />
        </mxCell>
        <mxCell id="D8F1xkbiYgFCIlf3R8KJ-4" value="Qb种子目录" style="rounded=0;whiteSpace=wrap;html=1;" vertex="1" parent="1">
          <mxGeometry x="200" y="170" width="130" height="40" as="geometry" />
        </mxCell>
        <mxCell id="D8F1xkbiYgFCIlf3R8KJ-5" value="Tr种子目录" style="rounded=0;whiteSpace=wrap;html=1;" vertex="1" parent="1">
          <mxGeometry x="200" y="390" width="130" height="40" as="geometry" />
        </mxCell>
        <mxCell id="D8F1xkbiYgFCIlf3R8KJ-7" value="" style="edgeStyle=orthogonalEdgeStyle;rounded=0;orthogonalLoop=1;jettySize=auto;html=1;" edge="1" parent="1" source="D8F1xkbiYgFCIlf3R8KJ-6" target="D8F1xkbiYgFCIlf3R8KJ-5">
          <mxGeometry relative="1" as="geometry" />
        </mxCell>
        <mxCell id="D8F1xkbiYgFCIlf3R8KJ-14" value="自动加载到" style="edgeLabel;html=1;align=center;verticalAlign=middle;resizable=0;points=[];" vertex="1" connectable="0" parent="D8F1xkbiYgFCIlf3R8KJ-7">
          <mxGeometry x="0.32" y="4" relative="1" as="geometry">
            <mxPoint x="-4" as="offset" />
          </mxGeometry>
        </mxCell>
        <mxCell id="D8F1xkbiYgFCIlf3R8KJ-6" value="Tr种子监控目录" style="rounded=0;whiteSpace=wrap;html=1;" vertex="1" parent="1">
          <mxGeometry x="200" y="320" width="130" height="40" as="geometry" />
        </mxCell>
        <mxCell id="D8F1xkbiYgFCIlf3R8KJ-8" value="数据资源目录" style="rounded=0;whiteSpace=wrap;html=1;" vertex="1" parent="1">
          <mxGeometry x="200" y="220" width="130" height="80" as="geometry" />
        </mxCell>
        <mxCell id="D8F1xkbiYgFCIlf3R8KJ-15" value="" style="rounded=0;whiteSpace=wrap;html=1;" vertex="1" parent="1">
          <mxGeometry x="-20" y="180" width="120" height="240" as="geometry" />
        </mxCell>
        <mxCell id="D8F1xkbiYgFCIlf3R8KJ-21" style="edgeStyle=orthogonalEdgeStyle;rounded=0;orthogonalLoop=1;jettySize=auto;html=1;entryX=0.003;entryY=0.163;entryDx=0;entryDy=0;entryPerimeter=0;" edge="1" parent="1">
          <mxGeometry relative="1" as="geometry">
            <mxPoint x="563.64" y="240.88000000000005" as="sourcePoint" />
            <mxPoint x="659.9999999999999" y="240" as="targetPoint" />
          </mxGeometry>
        </mxCell>
        <mxCell id="D8F1xkbiYgFCIlf3R8KJ-32" value="下载时上传" style="edgeLabel;html=1;align=center;verticalAlign=middle;resizable=0;points=[];" vertex="1" connectable="0" parent="D8F1xkbiYgFCIlf3R8KJ-21">
          <mxGeometry x="-0.1201" y="-1" relative="1" as="geometry">
            <mxPoint as="offset" />
          </mxGeometry>
        </mxCell>
        <mxCell id="D8F1xkbiYgFCIlf3R8KJ-29" style="edgeStyle=orthogonalEdgeStyle;rounded=0;orthogonalLoop=1;jettySize=auto;html=1;entryX=0.003;entryY=0.163;entryDx=0;entryDy=0;entryPerimeter=0;" edge="1" parent="1">
          <mxGeometry relative="1" as="geometry">
            <mxPoint x="563.64" y="390.88000000000005" as="sourcePoint" />
            <mxPoint x="659.9999999999999" y="390" as="targetPoint" />
          </mxGeometry>
        </mxCell>
        <mxCell id="D8F1xkbiYgFCIlf3R8KJ-30" value="刷上传" style="edgeLabel;html=1;align=center;verticalAlign=middle;resizable=0;points=[];" vertex="1" connectable="0" parent="D8F1xkbiYgFCIlf3R8KJ-29">
          <mxGeometry x="-0.0757" y="-3" relative="1" as="geometry">
            <mxPoint as="offset" />
          </mxGeometry>
        </mxCell>
        <mxCell id="D8F1xkbiYgFCIlf3R8KJ-39" style="edgeStyle=orthogonalEdgeStyle;rounded=0;orthogonalLoop=1;jettySize=auto;html=1;entryX=0.25;entryY=1;entryDx=0;entryDy=0;exitX=0.75;exitY=1;exitDx=0;exitDy=0;" edge="1" parent="1" source="D8F1xkbiYgFCIlf3R8KJ-33" target="D8F1xkbiYgFCIlf3R8KJ-3">
          <mxGeometry relative="1" as="geometry">
            <Array as="points">
              <mxPoint x="60" y="470" />
              <mxPoint x="690" y="470" />
            </Array>
          </mxGeometry>
        </mxCell>
        <mxCell id="D8F1xkbiYgFCIlf3R8KJ-40" value="1.根据种子Hash、获取多个PT站上的种子" style="edgeLabel;html=1;align=center;verticalAlign=middle;resizable=0;points=[];" vertex="1" connectable="0" parent="D8F1xkbiYgFCIlf3R8KJ-39">
          <mxGeometry x="-0.022" y="-1" relative="1" as="geometry">
            <mxPoint as="offset" />
          </mxGeometry>
        </mxCell>
        <mxCell id="D8F1xkbiYgFCIlf3R8KJ-42" style="edgeStyle=orthogonalEdgeStyle;rounded=0;orthogonalLoop=1;jettySize=auto;html=1;entryX=0;entryY=0.5;entryDx=0;entryDy=0;exitX=1;exitY=0.75;exitDx=0;exitDy=0;" edge="1" parent="1" source="D8F1xkbiYgFCIlf3R8KJ-33" target="D8F1xkbiYgFCIlf3R8KJ-6">
          <mxGeometry relative="1" as="geometry" />
        </mxCell>
        <mxCell id="D8F1xkbiYgFCIlf3R8KJ-43" value="3. 存放入种子监控目录" style="edgeLabel;html=1;align=center;verticalAlign=middle;resizable=0;points=[];" vertex="1" connectable="0" parent="D8F1xkbiYgFCIlf3R8KJ-42">
          <mxGeometry x="-0.661" y="2" relative="1" as="geometry">
            <mxPoint x="25" y="12" as="offset" />
          </mxGeometry>
        </mxCell>
        <mxCell id="D8F1xkbiYgFCIlf3R8KJ-33" value="自动辅种" style="rounded=0;whiteSpace=wrap;html=1;" vertex="1" parent="1">
          <mxGeometry y="400" width="80" height="40" as="geometry" />
        </mxCell>
        <mxCell id="D8F1xkbiYgFCIlf3R8KJ-36" value="IYUU-Plus" style="text;html=1;align=center;verticalAlign=middle;whiteSpace=wrap;rounded=0;" vertex="1" parent="1">
          <mxGeometry x="-20" y="180" width="60" height="30" as="geometry" />
        </mxCell>
        <mxCell id="D8F1xkbiYgFCIlf3R8KJ-46" style="edgeStyle=orthogonalEdgeStyle;rounded=0;orthogonalLoop=1;jettySize=auto;html=1;entryX=0;entryY=0.25;entryDx=0;entryDy=0;" edge="1" parent="1" source="D8F1xkbiYgFCIlf3R8KJ-44" target="D8F1xkbiYgFCIlf3R8KJ-6">
          <mxGeometry relative="1" as="geometry" />
        </mxCell>
        <mxCell id="D8F1xkbiYgFCIlf3R8KJ-48" value="2. 存入监控目录" style="edgeLabel;html=1;align=center;verticalAlign=middle;resizable=0;points=[];" vertex="1" connectable="0" parent="D8F1xkbiYgFCIlf3R8KJ-46">
          <mxGeometry x="-0.4426" y="3" relative="1" as="geometry">
            <mxPoint x="14" y="3" as="offset" />
          </mxGeometry>
        </mxCell>
        <mxCell id="D8F1xkbiYgFCIlf3R8KJ-44" value="转移&lt;div&gt;辅种&lt;/div&gt;" style="rounded=0;whiteSpace=wrap;html=1;" vertex="1" parent="1">
          <mxGeometry x="30" y="210" width="50" height="150" as="geometry" />
        </mxCell>
        <mxCell id="D8F1xkbiYgFCIlf3R8KJ-45" style="edgeStyle=orthogonalEdgeStyle;rounded=0;orthogonalLoop=1;jettySize=auto;html=1;entryX=1;entryY=0.25;entryDx=0;entryDy=0;" edge="1" parent="1" source="D8F1xkbiYgFCIlf3R8KJ-4" target="D8F1xkbiYgFCIlf3R8KJ-44">
          <mxGeometry relative="1" as="geometry" />
        </mxCell>
        <mxCell id="D8F1xkbiYgFCIlf3R8KJ-47" value="1. 读取种子目录" style="edgeLabel;html=1;align=center;verticalAlign=middle;resizable=0;points=[];" vertex="1" connectable="0" parent="D8F1xkbiYgFCIlf3R8KJ-45">
          <mxGeometry x="-0.1055" y="-1" relative="1" as="geometry">
            <mxPoint as="offset" />
          </mxGeometry>
        </mxCell>
      </root>
    </mxGraphModel>
  </diagram>
</mxfile>
